<svg width="881" height="323" viewBox="0 0 881 323" fill="none" xmlns="http://www.w3.org/2000/svg">
<path d="M310.832 144.93C312.391 147.724 313.841 150.733 315.181 153.955L247.594 191.673C251.438 197.468 255.959 201.053 261.154 202.429C266.402 203.623 271.528 202.823 276.535 200.029C283.986 195.871 287.413 189.836 286.815 181.924L318.6 164.185C320.544 171.499 320.792 178.919 319.343 186.446C318.01 193.908 314.954 200.881 310.175 207.366C305.396 213.85 299.048 219.302 291.13 223.72C281.583 229.048 271.947 231.754 262.221 231.837C252.495 231.921 243.425 229.348 235.01 224.119C226.595 218.89 219.561 211.211 213.908 201.082C208.255 190.952 205.355 180.967 205.206 171.125C205.174 161.218 207.747 152.147 212.924 143.914C218.102 135.68 225.522 128.867 235.186 123.474C244.617 118.211 254.104 115.512 263.648 115.377C273.193 115.242 282.049 117.705 290.218 122.766C298.503 127.762 305.374 135.15 310.832 144.93ZM275.883 154.127C273.024 149.004 269.004 145.904 263.821 144.826C258.639 143.748 253.428 144.671 248.189 147.595C243.183 150.389 239.745 154.216 237.877 159.076C236.125 163.871 236.336 169.174 238.509 174.985L275.883 154.127Z" fill="white"/>
<path d="M763.1 176.001C763.1 164.534 765.233 154.467 769.5 145.801C773.9 137.134 779.833 130.467 787.3 125.801C794.766 121.134 803.1 118.801 812.3 118.801C820.166 118.801 827.033 120.401 832.9 123.601C838.9 126.801 843.5 131.001 846.7 136.201V120.401H880.9V232.001H846.7V216.201C843.366 221.401 838.7 223.5 832.7 226.7C826.833 229.9 819.966 231.5 812.1 231.5C803.033 231.5 794.766 229.167 787.3 224.5C779.833 219.7 773.9 215.067 769.5 206.401C765.233 197.601 763.1 187.467 763.1 176.001ZM846.7 176.201C846.7 167.667 844.3 160.934 839.5 156.001C834.833 151.067 829.1 148.601 822.3 148.601C815.5 148.601 809.7 151.067 804.9 156.001C800.233 160.801 797.9 167.467 797.9 176.001C797.9 184.534 800.233 191.334 804.9 196.401C809.7 201.334 815.5 203.801 822.3 203.801C829.1 203.801 834.833 201.334 839.5 196.401C844.3 191.467 846.7 184.734 846.7 176.201Z" fill="white"/>
<path d="M718.554 139.001C722.554 132.868 727.554 128.068 733.554 124.601C739.554 121.001 746.22 119.201 753.554 119.201V155.401H744.154C735.62 155.401 729.22 157.268 724.954 161.001C720.687 164.601 718.554 171.001 718.554 180.201V232.001H684.354V120.401H718.554V139.001Z" fill="white"/>
<path d="M665.304 203.001V232.001H647.904C635.504 232.001 625.838 229.001 618.904 223.001C611.971 216.868 608.504 206.935 608.504 193.201V148.801H594.904V120.401H608.504V93.2012H642.704V120.401H665.104V148.801H642.704V193.601C642.704 196.935 643.504 199.335 645.104 200.801C646.704 202.268 649.371 203.001 653.104 203.001H665.304Z" fill="white"/>
<path fill-rule="evenodd" clip-rule="evenodd" d="M578.32 232.001V120.401H544.12V232.001H578.32Z" fill="white"/>
<path d="M561.32 108.801C555.32 108.801 550.387 107.067 546.52 103.601C542.787 100.001 540.92 95.6008 540.92 90.4008C540.92 85.0675 542.787 80.6675 546.52 77.2008C550.387 73.6008 555.32 71.8008 561.32 71.8008C567.187 71.8008 571.987 73.6008 575.72 77.2008C579.587 80.6675 581.52 85.0675 581.52 90.4008C581.52 95.6008 579.587 100.001 575.72 103.601C571.987 107.067 567.187 108.801 561.32 108.801Z" fill="white"/>
<path d="M474.8 119.201C488.667 119.201 499.667 123.401 507.8 131.801C516.067 140.201 520.2 151.868 520.2 166.801V232.001H486.2V171.401C486.2 164.201 484.267 158.668 480.4 154.801C476.667 150.801 471.467 148.801 464.8 148.801C458.134 148.801 452.867 150.801 449 154.801C445.267 158.668 443.4 164.201 443.4 171.401V232.001H409.4V171.401C409.4 164.201 407.467 158.668 403.6 154.801C399.867 150.801 394.667 148.801 388 148.801C381.334 148.801 376.067 150.801 372.2 154.801C368.467 158.668 366.6 164.201 366.6 171.401V232.001H332.4V120.401H366.6V134.401C370.067 129.735 374.6 126.068 380.2 123.401C385.8 120.601 392.134 119.201 399.2 119.201C407.6 119.201 415.067 121.001 421.6 124.601C428.267 128.201 433.467 133.335 437.2 140.001C441.067 133.868 446.334 128.868 453 125.001C459.667 121.135 466.934 119.201 474.8 119.201Z" fill="white"/>
<path d="M97 61C145.86 61 186.282 97.1252 193.015 144.123C193.674 147.287 194 151.812 194 158C194 211.572 129.5 294.5 97 294.5C64.5 294.5 0 211.572 0 158C0 157.737 0.000911064 157.477 0.00390625 157.221C0.422636 104.008 43.6884 61 97 61ZM83.5244 92C61.9246 92 44.4141 105.766 44.4141 122.746V219.957C44.4141 224.951 49.5641 229 55.917 229H111.821C133.421 229 150.931 215.234 150.931 198.254V159.822H101.009C94.6561 159.822 89.5062 163.87 89.5059 168.864V174.167C91.853 175.756 94.4053 177.162 97.127 178.359C103.805 181.297 111.504 182.972 119.7 182.972C119.774 182.972 119.848 182.972 119.921 182.972C114.443 198.84 96.1781 210.572 74.3604 210.907C74.0938 210.903 73.8269 210.896 73.5615 210.889C73.508 210.846 73.4546 210.802 73.4014 210.759V148.066C73.4014 147.815 73.4049 147.563 73.4111 147.312C73.4899 144.137 74.065 141.057 75.0791 138.119C80.5564 122.25 98.8218 110.518 120.64 110.184C120.96 110.189 121.28 110.196 121.599 110.206V141.284H150.931V101.043C150.931 96.0487 145.781 92 139.428 92H83.5244ZM58.6201 193.823C59.9752 193.823 61.2724 194.018 62.4688 194.374C66.5724 195.596 69.49 198.714 69.4902 202.368C69.4902 203.644 69.1344 204.854 68.4971 205.941C67.5384 207.577 65.9424 208.934 63.959 209.814C62.3821 210.515 60.5603 210.914 58.6201 210.914C53.2679 210.914 48.8192 207.873 47.917 203.869C47.8072 203.382 47.75 202.88 47.75 202.368C47.7503 197.649 52.6168 193.823 58.6201 193.823ZM136.035 110.176C141.285 110.176 145.665 113.102 146.683 116.992C146.829 117.551 146.905 118.129 146.905 118.722C146.905 123.441 142.039 127.267 136.035 127.268C130.032 127.268 125.165 123.441 125.165 118.722C125.165 115.493 127.442 112.683 130.803 111.229C132.355 110.558 134.138 110.176 136.035 110.176Z" fill="white"/>
</svg>
