<svg width="194" height="234" viewBox="0 0 194 234" fill="none" xmlns="http://www.w3.org/2000/svg">
<path fill-rule="evenodd" clip-rule="evenodd" d="M193.015 83.1229C193.674 86.2865 194 90.8116 194 97C194 150.572 129.5 233.5 97 233.5C64.5 233.5 0 150.572 0 97C0 43.4284 43.4284 0 97 0C145.86 0 186.282 36.1251 193.015 83.1229ZM83.5239 31C61.9241 31 44.4139 44.7654 44.4139 61.7459V86.4003V140.633V158.957C44.4139 163.951 49.564 168 55.9169 168H111.821C133.421 168 150.931 154.235 150.931 137.254V112.445V98.8218H127.81H124.971H121.599H117.67H101.008C94.6555 98.8218 89.5055 102.87 89.5055 107.865V113.167C91.8527 114.756 94.4049 116.163 97.1267 117.36C103.805 120.297 111.504 121.972 119.701 121.972C119.742 121.972 119.783 121.972 119.825 121.971C119.857 121.971 119.889 121.971 119.921 121.971C114.443 137.84 96.178 149.572 74.3599 149.907C74.0933 149.903 73.8273 149.897 73.5619 149.889C73.5082 149.846 73.4547 149.803 73.4013 149.759V104.131V87.066C73.4013 86.8142 73.4045 86.5631 73.4107 86.3125C73.4895 83.137 74.0652 80.0572 75.0793 77.1192C80.5566 61.2502 98.822 49.5182 120.64 49.1836C120.96 49.1886 121.28 49.1962 121.599 49.2063V80.2838H150.931V58.7033V40.0429C150.931 35.0486 145.781 31 139.428 31H83.5239ZM63.9586 148.814C65.9422 147.934 67.5386 146.577 68.4974 144.942C69.1348 143.855 69.4903 142.644 69.4903 141.369C69.4903 137.714 66.5727 134.596 62.4688 133.374C61.2724 133.018 59.9752 132.823 58.6201 132.823C52.6166 132.823 47.7498 136.649 47.7498 141.369C47.7498 141.881 47.8071 142.382 47.9168 142.869C48.819 146.873 53.2678 149.914 58.6201 149.914C60.5603 149.914 62.3818 149.515 63.9586 148.814ZM146.905 57.7218C146.905 62.4414 142.038 66.2673 136.035 66.2673C130.031 66.2673 125.165 62.4414 125.165 57.7218C125.165 54.4932 127.442 51.6829 130.803 50.2294C132.355 49.5581 134.138 49.1762 136.035 49.1762C141.285 49.1762 145.665 52.1019 146.682 55.9923C146.828 56.5509 146.905 57.1293 146.905 57.7218Z" fill="#16A86E"/>
</svg>
